<svg width="289" height="260" viewBox="0 0 289 260" fill="none" xmlns="http://www.w3.org/2000/svg">
<g clip-path="url(#clip0_74_6253)">
<path d="M161.538 82.174C160.602 77.6128 157.946 73.6893 154.059 71.127C151.197 69.2399 147.89 68.2424 144.495 68.2424C144.285 68.2424 144.074 68.2464 143.863 68.2543C133.759 47.3539 113.817 32.9598 91.1054 29.5952C92.6231 25.6999 93.2181 20.7457 89.2974 18.2786L89.2953 18.2775C84.8784 15.4989 78.6489 20.1231 72.6303 24.5933C71.9469 25.101 71.2748 25.5997 70.6268 26.0705C71.2763 21.8069 73.0062 15.4413 77.6164 11.7372C71.7413 14.4371 69.2664 19.9888 68.2235 24.3527C67.0807 17.9596 66.3879 7.68879 71.3701 0C61.9614 8.76033 63.3487 21.8219 64.7196 28.0754C63.4121 27.8176 61.9335 27.4653 60.4076 27.1016C53.1158 25.362 45.5731 23.5647 42.6002 27.8627C40.0421 31.5686 42.3324 35.7538 45.1532 38.7243C45.0533 38.784 44.952 38.842 44.8521 38.9022C38.2216 42.9209 32.3286 47.989 27.3364 53.9658C22.3492 59.9368 18.4153 66.6303 15.6443 73.8597C12.9785 80.8139 11.4601 88.0866 11.1243 95.5005C7.7722 96.8004 4.88479 99.1222 2.88454 102.155C0.320778 106.042 -0.57534 110.695 0.36195 115.256C2.01886 123.326 9.1989 129.183 17.4347 129.183C17.6345 129.183 17.835 129.179 18.0355 129.172C29.6349 153.169 54.1974 168.591 81.0351 168.591C85.7126 168.591 90.4109 168.113 94.9996 167.171C102.81 165.568 110.228 162.66 117.047 158.527C123.678 154.509 129.571 149.441 134.563 143.464C139.55 137.493 143.484 130.8 146.255 123.57C148.92 116.616 150.439 109.343 150.774 101.93C154.127 100.63 157.015 98.3073 159.015 95.2746C161.578 91.3872 162.474 86.7348 161.538 82.1743L161.538 82.174ZM142.473 95.1793L142.477 98.7294C142.503 127.785 121.828 153.122 93.3173 158.973C89.2781 159.802 85.1444 160.222 81.0308 160.222C69.0641 160.222 57.4017 156.745 47.3041 150.165C37.0824 143.506 29.163 134.099 24.4025 122.964L23.008 119.702L19.2187 120.636C18.6276 120.755 18.0258 120.815 17.429 120.815C13.1518 120.815 9.42194 117.769 8.56019 113.573C8.07365 111.202 8.53943 108.783 9.87161 106.762C11.2174 104.721 13.2359 103.373 15.7102 102.862L19.425 102.249L19.4228 98.6997C19.4053 78.5466 29.3478 60.1856 44.9541 48.8719C45.2942 50.4669 46.1399 51.8893 47.7398 52.8967C48.6682 53.4799 49.6764 53.737 50.7458 53.737C54.7695 53.737 59.669 50.0981 64.4829 46.5222C66.5454 44.9939 68.5049 43.5425 69.9863 42.7355C71.6697 42.8934 74.0495 43.4598 76.6258 44.0716C83.9215 45.808 91.4695 47.6045 94.435 43.3126C95.4081 41.9027 95.677 40.4238 95.4851 38.9684C102.223 40.6182 108.678 43.4071 114.596 47.2637C124.817 53.9246 132.737 63.3308 137.498 74.4655L138.894 77.7306L142.672 76.7962C143.271 76.6752 143.882 76.614 144.486 76.614C146.246 76.614 147.963 77.1327 149.452 78.1137C151.472 79.4459 152.853 81.4855 153.34 83.8574C153.826 86.2289 153.361 88.6473 152.029 90.6672C150.683 92.7079 148.665 94.0559 146.191 94.5675L142.472 95.1797L142.473 95.1793ZM91.0636 40.9837C89.6934 42.9743 82.1074 41.1659 77.4832 40.0636C76.7321 39.8857 75.9899 39.7095 75.2689 39.5445C75.2871 39.5223 75.3036 39.4994 75.3215 39.4772C75.3702 39.4167 75.4178 39.3554 75.464 39.2939C75.4916 39.2573 75.5188 39.2212 75.5453 39.1843C75.594 39.1174 75.6409 39.0497 75.6871 38.9817C75.7057 38.9545 75.725 38.9273 75.7433 38.9C75.8023 38.8102 75.8589 38.7192 75.9137 38.6276C75.9362 38.5896 75.9581 38.5517 75.9799 38.5134C76.0157 38.4511 76.0504 38.3884 76.0844 38.3254C76.1052 38.2864 76.1263 38.2474 76.1464 38.2084C76.1893 38.1242 76.2309 38.0397 76.2703 37.9545C76.2857 37.9212 76.3003 37.8879 76.3154 37.8546C76.3512 37.7744 76.3852 37.6939 76.4178 37.613C76.4332 37.5747 76.4478 37.536 76.4625 37.4973C76.4793 37.4529 76.4962 37.4089 76.5119 37.3641C77.9648 37.2596 79.4201 37.2045 80.8729 37.2045C84.2623 37.2045 87.6273 37.4841 90.9397 38.034C91.4721 39.0916 91.6446 40.1413 91.0636 40.983V40.9837ZM63.8689 41.8859C63.2528 42.3352 62.6176 42.8053 61.9696 43.2854C58.2276 46.064 51.9612 50.711 49.9216 49.429C48.9521 48.8186 48.7541 47.5863 48.9249 46.2183C52.9168 43.7727 57.2198 41.7663 61.772 40.2698C61.7842 40.2834 61.7971 40.296 61.8092 40.3096C61.8608 40.3665 61.913 40.4223 61.9664 40.4775C61.9936 40.5057 62.0208 40.534 62.0487 40.562C62.1175 40.6303 62.1873 40.6976 62.2593 40.7639C62.2761 40.7793 62.2929 40.795 62.3101 40.8104C62.3849 40.8777 62.4615 40.9432 62.5392 41.0077C62.5693 41.0324 62.5997 41.0567 62.6302 41.0811C62.6921 41.1305 62.7547 41.1792 62.8185 41.2268C62.8482 41.249 62.8775 41.2715 62.908 41.2934C62.9975 41.3582 63.0888 41.4219 63.1819 41.4831C63.2026 41.4967 63.2245 41.5096 63.2452 41.5232C63.3218 41.5726 63.3995 41.6206 63.4783 41.6675C63.5123 41.6876 63.5463 41.7073 63.5807 41.7269C63.6548 41.7696 63.7303 41.8111 63.8062 41.8515C63.8274 41.8626 63.8474 41.8748 63.8685 41.8859H63.8689ZM70.3451 38.2499C70.2549 38.2911 70.1639 38.3312 70.0701 38.3677C70.0236 38.3856 69.976 38.4013 69.9291 38.4181C69.8392 38.45 69.7486 38.4812 69.6559 38.5091C69.6025 38.5252 69.5485 38.5395 69.4944 38.5542C69.4429 38.5682 69.3902 38.58 69.3376 38.5925L69.1332 38.6365L68.9434 38.6741C68.8983 38.682 68.8536 38.6899 68.8085 38.6963C68.7369 38.7071 68.6653 38.7171 68.5937 38.725C68.5203 38.7328 68.4472 38.7379 68.3742 38.7429C68.3051 38.7475 68.2356 38.7533 68.1665 38.755C68.0856 38.7575 68.0051 38.7558 67.9242 38.7543C67.8637 38.7533 67.8028 38.7543 67.7423 38.7515C67.6177 38.745 67.4935 38.7336 67.3692 38.7182C66.2966 37.816 66.0607 34.9121 68.2088 34.7112C70.4754 34.4996 71.2305 36.3993 70.7163 38.0612C70.6329 38.1077 70.5499 38.1546 70.4636 38.1965C70.4246 38.2155 70.3841 38.2316 70.3447 38.2495L70.3451 38.2499ZM87.1164 21.746C89.0855 22.9876 87.8722 26.7962 86.8397 29.0961C84.8623 28.9264 82.8678 28.8383 80.8604 28.8383C78.306 28.8383 75.7447 28.9819 73.1981 29.2651C73.8111 28.819 74.4372 28.3543 75.0723 27.8813C78.8104 25.1049 85.0635 20.4596 87.1164 21.746ZM45.9705 30.1913C46.4188 29.544 47.5211 29.298 48.9625 29.298C51.953 29.298 56.4014 30.3585 59.4578 31.0877C60.1677 31.2564 60.8676 31.4221 61.5525 31.5804C57.1765 32.8452 52.9451 34.5329 48.8984 36.6316C47.0661 34.8949 44.701 32.0318 45.9705 30.1916V30.1913Z" fill="#EE3580"/>
<path d="M108.307 82.8983C105.101 83.5563 103.402 88.4726 104.512 93.8786C105.621 99.2847 109.12 103.134 112.326 102.476C115.532 101.818 117.231 96.9021 116.121 91.4957C115.011 86.0896 111.513 82.2402 108.307 82.8983Z" fill="#EE3580"/>
<path d="M49.5742 94.9534C46.3681 95.6114 44.669 100.527 45.7785 105.933C46.8883 111.34 50.3865 115.189 53.5926 114.531C56.7986 113.873 58.4981 108.957 57.3883 103.551C56.2788 98.1444 52.7802 94.2954 49.5742 94.9534Z" fill="#EE3580"/>
<path d="M103.078 130.886C101.392 122.67 93.3414 117.359 85.1227 119.047C76.9087 120.732 71.5975 128.787 73.2838 137.002C73.9568 140.281 75.6463 143.095 77.9538 145.188C77.9838 145.392 78.0186 145.596 78.0612 145.803C79.2555 151.622 84.3927 155.642 90.1088 155.641C90.924 155.641 91.7525 155.559 92.5813 155.389C95.8009 154.729 98.5688 152.855 100.376 150.112C102.183 147.369 102.815 144.082 102.153 140.859C102.11 140.651 102.061 140.449 102.009 140.252C103.306 137.418 103.751 134.165 103.078 130.886ZM78.905 127.827C80.5383 125.349 83.039 123.657 85.9469 123.06C86.6969 122.906 87.4462 122.832 88.1834 122.832C93.3478 122.832 97.9866 126.458 99.065 131.71C99.3002 132.856 99.3475 133.997 99.2307 135.103C97.8506 133.577 96.0924 132.399 94.1175 131.717C93.6514 130.466 92.8058 129.398 91.6708 128.65C90.2567 127.717 88.564 127.391 86.9056 127.733C85.2462 128.074 83.8188 129.04 82.8865 130.453C82.1383 131.589 81.7817 132.903 81.8461 134.235C80.2981 135.641 79.1449 137.416 78.4772 139.357C77.9359 138.387 77.5313 137.321 77.2964 136.178C76.7003 133.27 77.2703 130.304 78.905 127.827ZM81.9199 143.115C81.9618 141.385 82.5654 139.709 83.614 138.343C83.9355 138.675 84.2946 138.976 84.6902 139.237C85.7385 139.929 86.9396 140.287 88.1673 140.287C88.5951 140.287 89.0265 140.243 89.4547 140.155C91.1141 139.814 92.5415 138.848 93.4745 137.434C93.7348 137.038 93.946 136.621 94.1104 136.189C95.6037 137.029 96.8163 138.327 97.5445 139.909C95.9842 142.357 93.4767 144.199 90.4146 144.827C87.3488 145.458 84.3182 144.752 81.9199 143.115V143.115ZM86.3074 132.709C86.6364 132.209 87.1426 131.867 87.7298 131.746C87.8819 131.715 88.0337 131.7 88.1859 131.7C88.6202 131.7 89.0441 131.826 89.4153 132.071C89.9155 132.4 90.2577 132.905 90.3784 133.492C90.4983 134.079 90.3834 134.678 90.0537 135.18C89.7236 135.68 89.2184 136.021 88.6313 136.142C88.0431 136.259 87.4452 136.146 86.9461 135.817C86.4449 135.488 86.1037 134.983 85.983 134.395C85.8631 133.808 85.978 133.209 86.3077 132.709L86.3074 132.709ZM91.7578 151.376C88.656 152.013 85.5949 150.793 83.7261 148.481C85.1478 148.919 86.6446 149.153 88.1759 149.153C89.1858 149.153 90.2112 149.052 91.2387 148.841C93.8268 148.31 96.1257 147.145 98.0092 145.543C97.7826 146.355 97.431 147.134 96.9552 147.857C95.7497 149.686 93.9045 150.936 91.7578 151.376Z" fill="#EE3580"/>
<path d="M288.701 110.411C287.158 118.653 279.956 124.636 271.578 124.636C271.477 124.636 271.373 124.634 271.269 124.632C265.765 136.548 257.018 146.617 245.897 153.824C234.47 161.228 221.285 165.143 207.764 165.143C203.49 165.143 199.187 164.743 194.973 163.954C174.987 160.211 157.571 147.811 147.405 130.35C148.257 128.572 149.037 126.758 149.745 124.909C150.372 123.27 150.941 121.615 151.448 119.944L152.324 121.773C160.777 139.436 177.297 152.13 196.514 155.729C200.216 156.423 203.999 156.773 207.757 156.773C219.913 156.773 231.733 153.192 241.936 146.414C252.256 139.56 260.16 129.919 264.797 118.535L266.132 115.257L269.813 116.085C270.386 116.193 270.968 116.245 271.543 116.245C275.919 116.245 279.675 113.145 280.476 108.87C281.394 103.972 278.165 99.2399 273.274 98.3019L269.416 97.7255L269.356 94.1894C268.881 65.1345 247.771 40.1603 219.164 34.8025C215.345 34.0865 211.459 33.7249 207.612 33.7249C184.846 33.7249 164.123 46.277 153.444 66.506C151.159 65.4324 148.71 64.7768 146.195 64.5731C145.999 64.1983 145.799 63.8252 145.594 63.4539L145.848 62.966C157.927 39.7643 181.586 25.3509 207.593 25.3509C211.174 25.3509 214.782 25.6333 218.354 26.1797C219.593 19.6824 223.403 7.79117 234.996 3.40009C227.477 8.63538 224.237 18.4071 222.879 24.7573C225.494 21.1101 229.883 16.9052 236.343 16.6267C230.614 18.3316 226.582 23.6649 224.384 27.3722C230.881 28.9547 237.096 31.4565 242.898 34.838C249.597 38.7414 255.577 43.7071 260.671 49.5962C265.761 55.4813 269.809 62.1049 272.705 69.2864C275.491 76.1926 277.134 83.4399 277.597 90.8452C281.177 92.1637 284.226 94.6222 286.295 97.8909C288.659 101.626 289.512 106.073 288.7 110.411L288.701 110.411Z" fill="#5A84C2"/>
<path d="M243.13 101.875C244.146 96.4506 242.362 91.5648 239.145 90.9622C235.928 90.3597 232.497 94.2685 231.481 99.6932C230.465 105.118 232.249 110.004 235.466 110.606C238.682 111.209 242.114 107.3 243.13 101.875H243.13Z" fill="#5A84C2"/>
<path d="M184.198 90.8369C185.214 85.4122 183.43 80.5264 180.213 79.9238C176.996 79.3213 173.564 83.2301 172.548 88.6548C171.532 94.0791 173.317 98.9654 176.534 99.5679C179.75 100.17 183.182 96.2612 184.198 90.8369Z" fill="#5A84C2"/>
<path d="M204.018 115.665C195.78 114.118 187.815 119.57 186.27 127.814C185.654 131.103 186.155 134.349 187.5 137.158C187.451 137.359 187.406 137.561 187.366 137.768C186.117 144.441 190.524 150.884 197.187 152.132C197.948 152.276 198.705 152.343 199.453 152.343C205.255 152.343 210.434 148.206 211.542 142.297C211.579 142.093 211.609 141.893 211.636 141.695C213.981 139.501 215.564 136.63 216.167 133.412C217.71 125.17 212.259 117.209 204.018 115.664L204.018 115.665ZM197.942 148.105C194.828 147.523 192.456 145.236 191.601 142.389C193.509 143.955 195.827 145.076 198.419 145.561C199.363 145.739 200.31 145.825 201.25 145.825C202.84 145.825 204.41 145.573 205.913 145.083C204.084 147.421 201.051 148.689 197.942 148.105ZM207.495 139.782C205.043 141.46 202.091 142.076 199.172 141.534C196.1 140.959 193.558 139.16 191.957 136.736C192.65 135.149 193.843 133.827 195.331 132.959C196.111 134.909 197.839 136.433 200.05 136.845C200.444 136.92 200.84 136.956 201.233 136.956C202.497 136.956 203.733 136.577 204.799 135.847C205.189 135.579 205.543 135.272 205.86 134.935C206.926 136.278 207.559 137.941 207.632 139.682C207.587 139.716 207.542 139.75 207.495 139.782H207.495ZM199.012 130.201C199.123 129.611 199.457 129.1 199.95 128.761C200.329 128.503 200.766 128.37 201.212 128.37C201.352 128.37 201.493 128.383 201.631 128.409C202.22 128.519 202.731 128.852 203.07 129.347C203.407 129.841 203.533 130.438 203.424 131.026C203.313 131.615 202.979 132.126 202.486 132.465C201.99 132.804 201.391 132.927 200.805 132.819C199.589 132.591 198.784 131.416 199.012 130.201H199.012ZM212.141 132.659C211.926 133.797 211.544 134.875 211.012 135.867C210.312 133.931 209.129 132.175 207.558 130.796C207.646 127.731 205.491 124.964 202.386 124.381C200.717 124.067 199.033 124.425 197.637 125.382C196.515 126.15 195.688 127.232 195.243 128.49C193.28 129.206 191.541 130.413 190.188 131.958C190.054 130.856 190.083 129.716 190.298 128.567C191.296 123.234 195.974 119.502 201.213 119.502C201.889 119.502 202.577 119.565 203.264 119.692C209.285 120.821 213.268 126.636 212.141 132.659Z" fill="#5A84C2"/>
</g>
<defs>
<clipPath id="clip0_74_6253">
<rect width="289" height="259.887" fill="white"/>
</clipPath>
</defs>
</svg>
