<svg width="258" height="233" viewBox="0 0 258 233" fill="none" xmlns="http://www.w3.org/2000/svg">
<path d="M144.109 73.9948C143.274 69.9258 140.904 66.4256 137.437 64.1397C134.884 62.4562 131.933 61.5664 128.905 61.5664C128.718 61.5664 128.529 61.5699 128.341 61.577C119.327 42.9317 101.537 30.0906 81.2758 27.089C82.6297 23.614 83.1605 19.1943 79.6629 16.9934L79.661 16.9925C75.7207 14.5137 70.1633 18.6389 64.7941 22.6268C64.1843 23.0797 63.5848 23.5246 63.0067 23.9446C63.5861 20.141 65.1294 14.4623 69.2422 11.1579C64.001 13.5664 61.7931 18.5191 60.8627 22.4122C59.8432 16.7088 59.2252 7.54621 63.6698 0.687012C55.2763 8.50214 56.5139 20.1544 57.7368 25.7332C56.5704 25.5032 55.2513 25.1889 53.8901 24.8645C47.3851 23.3125 40.6562 21.7092 38.004 25.5435C35.722 28.8495 37.7651 32.5831 40.2816 35.2331C40.1925 35.2864 40.1021 35.3382 40.013 35.3918C34.0979 38.977 28.8407 43.4982 24.3872 48.8301C19.9381 54.1569 16.4286 60.1282 13.9566 66.5776C11.5784 72.7814 10.2239 79.2695 9.92427 85.8834C6.93383 87.0431 4.35796 89.1144 2.57353 91.8196C0.286386 95.2875 -0.513045 99.4386 0.323115 103.507C1.80125 110.706 8.2066 115.932 15.5538 115.932C15.732 115.932 15.9109 115.928 16.0898 115.922C26.4376 137.33 48.35 151.088 72.292 151.088C76.4648 151.088 80.6562 150.662 84.7498 149.821C91.7176 148.391 98.335 145.797 104.418 142.11C110.334 138.525 115.591 134.004 120.044 128.672C124.493 123.345 128.003 117.374 130.475 110.924C132.853 104.721 134.207 98.2326 134.506 91.619C137.498 90.4593 140.074 88.3874 141.858 85.6819C144.145 82.214 144.944 78.0635 144.109 73.9951L144.109 73.9948ZM127.101 85.5969L127.104 88.764C127.128 114.685 108.684 137.288 83.249 142.508C79.6456 143.247 75.958 143.622 72.2882 143.622C61.6126 143.622 51.2085 140.52 42.2005 134.65C33.0816 128.709 26.0167 120.318 21.7698 110.383L20.5258 107.473L17.1453 108.307C16.618 108.413 16.0811 108.467 15.5487 108.467C11.733 108.467 8.40558 105.749 7.63681 102.006C7.20276 99.8906 7.61828 97.7324 8.80673 95.9298C10.0073 94.109 11.808 92.9062 14.0153 92.4504L17.3293 91.9042L17.3274 88.7375C17.3117 70.7588 26.1815 54.3789 40.104 44.2859C40.4074 45.7087 41.1618 46.9777 42.5892 47.8764C43.4173 48.3967 44.3167 48.626 45.2708 48.626C48.8604 48.626 53.2312 45.3798 57.5257 42.1897C59.3657 40.8262 61.1137 39.5314 62.4354 38.8115C63.9371 38.9524 66.0601 39.4577 68.3584 40.0035C74.8669 41.5525 81.6006 43.1552 84.2461 39.3264C85.1142 38.0686 85.3541 36.7492 85.1829 35.4509C91.1938 36.9227 96.9524 39.4107 102.232 42.8512C111.35 48.7934 118.415 57.1847 122.663 67.118L123.908 70.0309L127.278 69.1973C127.813 69.0893 128.358 69.0347 128.897 69.0347C130.467 69.0347 131.999 69.4975 133.327 70.3726C135.129 71.5611 136.361 73.3806 136.795 75.4966C137.229 77.6122 136.814 79.7697 135.626 81.5717C134.425 83.3922 132.625 84.5947 130.418 85.0511L127.1 85.5973L127.101 85.5969ZM81.2384 37.2488C80.0161 39.0246 73.2486 37.4113 69.1234 36.4279C68.4533 36.2692 67.7912 36.1121 67.1479 35.9648C67.1642 35.945 67.1789 35.9246 67.1949 35.9048C67.2383 35.8508 67.2808 35.7962 67.322 35.7412C67.3466 35.7087 67.3709 35.6764 67.3945 35.6435C67.438 35.5838 67.4798 35.5234 67.521 35.4627C67.5376 35.4385 67.5548 35.4142 67.5711 35.3899C67.6238 35.3098 67.6743 35.2286 67.7232 35.1469C67.7433 35.113 67.7628 35.0792 67.7822 35.045C67.8142 34.9894 67.8452 34.9335 67.8755 34.8773C67.894 34.8425 67.9129 34.8077 67.9308 34.7729C67.9691 34.6978 68.0061 34.6224 68.0413 34.5464C68.055 34.5167 68.0681 34.487 68.0815 34.4573C68.1135 34.3858 68.1438 34.3139 68.1729 34.2417C68.1866 34.2075 68.1997 34.173 68.2128 34.1386C68.2278 34.0989 68.2428 34.0597 68.2569 34.0197C69.5529 33.9265 70.8513 33.8773 72.1473 33.8773C75.171 33.8773 78.1729 34.1267 81.1279 34.6173C81.6029 35.5608 81.7568 36.4972 81.2384 37.2481V37.2488ZM56.978 38.0536C56.4283 38.4545 55.8617 38.8738 55.2836 39.3021C51.9453 41.7809 46.3551 45.9266 44.5355 44.7828C43.6706 44.2383 43.494 43.1389 43.6463 41.9186C47.2075 39.7368 51.0463 37.9469 55.1073 36.6119C55.1182 36.624 55.1297 36.6352 55.1405 36.6474C55.1865 36.6981 55.2331 36.748 55.2807 36.7971C55.305 36.8224 55.3293 36.8476 55.3542 36.8725C55.4155 36.9335 55.4778 36.9936 55.542 37.0527C55.557 37.0664 55.572 37.0804 55.5873 37.0942C55.6541 37.1542 55.7224 37.2127 55.7917 37.2702C55.8186 37.2922 55.8457 37.3139 55.8729 37.3356C55.9281 37.3797 55.984 37.4232 56.0409 37.4656C56.0674 37.4854 56.0936 37.5056 56.1207 37.525C56.2006 37.5828 56.282 37.6397 56.3651 37.6943C56.3836 37.7064 56.4031 37.7179 56.4216 37.7301C56.4899 37.7742 56.5592 37.817 56.6295 37.8588C56.6599 37.8767 56.6902 37.8942 56.7209 37.9118C56.787 37.9498 56.8544 37.9869 56.9221 38.023C56.9409 38.0329 56.9588 38.0437 56.9776 38.0536H56.978ZM62.7554 34.8099C62.6749 34.8466 62.5938 34.8824 62.5101 34.915C62.4686 34.931 62.4261 34.945 62.3843 34.96C62.3041 34.9884 62.2233 35.0162 62.1406 35.0411C62.093 35.0555 62.0447 35.0683 61.9965 35.0814C61.9505 35.0938 61.9036 35.1044 61.8566 35.1156L61.6743 35.1549L61.505 35.1884C61.4647 35.1954 61.4248 35.2024 61.3846 35.2082C61.3207 35.2178 61.2568 35.2267 61.1929 35.2337C61.1275 35.2408 61.0623 35.2452 60.9972 35.2497C60.9355 35.2539 60.8736 35.259 60.8119 35.2606C60.7397 35.2628 60.6679 35.2612 60.5957 35.2599C60.5417 35.259 60.4874 35.2599 60.4334 35.2574C60.3223 35.2516 60.2115 35.2414 60.1006 35.2277C59.1437 34.4228 58.9333 31.8322 60.8496 31.6531C62.8717 31.4643 63.5452 33.159 63.0866 34.6416C63.0122 34.6831 62.9381 34.725 62.8611 34.7623C62.8263 34.7792 62.7902 34.7936 62.7551 34.8096L62.7554 34.8099ZM77.7172 20.0867C79.4738 21.1944 78.3914 24.592 77.4703 26.6438C75.7063 26.4924 73.927 26.4138 72.1362 26.4138C69.8573 26.4138 67.5724 26.5419 65.3006 26.7945C65.8474 26.3966 66.406 25.982 66.9726 25.5601C70.3073 23.0832 75.8858 18.9391 77.7172 20.0867ZM41.0107 27.6208C41.4106 27.0433 42.394 26.8239 43.6799 26.8239C46.3477 26.8239 50.3161 27.7699 53.0428 28.4205C53.6761 28.571 54.3005 28.7188 54.9115 28.86C51.0076 29.9884 47.2328 31.494 43.6227 33.3663C41.9881 31.8169 39.8782 29.2628 41.0107 27.6211V27.6208Z" fill="white"/>
<path d="M96.6218 74.6409C93.7616 75.2279 92.2455 79.6138 93.2356 84.4366C94.2254 89.2593 97.3465 92.6934 100.207 92.1064C103.067 91.5193 104.583 87.1338 103.593 82.3107C102.603 77.4879 99.4819 74.0539 96.6218 74.6409Z" fill="white"/>
<path d="M44.2257 85.3955C41.3655 85.9826 39.8497 90.3681 40.8395 95.1909C41.8296 100.014 44.9503 103.448 47.8105 102.861C50.6706 102.274 52.1867 97.8881 51.1966 93.0654C50.2069 88.2423 47.0858 84.8085 44.2257 85.3955Z" fill="white"/>
<path d="M91.9568 117.451C90.4531 110.122 83.2707 105.384 75.9388 106.889C68.6111 108.392 63.873 115.578 65.3773 122.907C65.9777 125.832 67.4849 128.342 69.5434 130.21C69.5702 130.392 69.6012 130.574 69.6392 130.759C70.7047 135.95 75.2876 139.536 80.387 139.535C81.1142 139.535 81.8533 139.462 82.5927 139.311C85.4649 138.722 87.9341 137.049 89.5464 134.603C91.1587 132.155 91.7221 129.223 91.1312 126.348C91.0932 126.163 91.0498 125.982 91.0035 125.806C92.1606 123.279 92.5573 120.377 91.9568 117.451ZM70.392 114.722C71.8491 112.512 74.08 111.002 76.6741 110.469C77.3432 110.332 78.0117 110.266 78.6693 110.266C83.2765 110.266 87.4148 113.501 88.3768 118.186C88.5866 119.208 88.6288 120.226 88.5247 121.213C87.2934 119.851 85.7249 118.801 83.9632 118.193C83.5473 117.077 82.7929 116.124 81.7805 115.456C80.5189 114.624 79.0088 114.333 77.5294 114.638C76.049 114.942 74.7756 115.804 73.9439 117.065C73.2764 118.078 72.9583 119.251 73.0158 120.439C71.6347 121.693 70.606 123.277 70.0103 125.008C69.5274 124.143 69.1665 123.192 68.957 122.172C68.4252 119.578 68.9337 116.932 70.392 114.722ZM73.0816 128.361C73.1189 126.817 73.6574 125.322 74.5929 124.103C74.8797 124.4 75.2001 124.669 75.553 124.901C76.4882 125.518 77.5597 125.837 78.6549 125.837C79.0366 125.837 79.4215 125.798 79.8034 125.72C81.2838 125.416 82.5572 124.554 83.3895 123.292C83.6217 122.94 83.8102 122.567 83.9568 122.182C85.2889 122.931 86.3707 124.089 87.0204 125.501C85.6285 127.685 83.3915 129.327 80.6597 129.888C77.9248 130.45 75.2212 129.821 73.0816 128.36V128.361ZM76.9957 119.077C77.2892 118.631 77.7408 118.326 78.2646 118.218C78.4004 118.191 78.5358 118.177 78.6715 118.177C79.0589 118.177 79.4371 118.289 79.7683 118.508C80.2145 118.802 80.5198 119.252 80.6275 119.776C80.7345 120.3 80.6319 120.834 80.3378 121.282C80.0433 121.728 79.5926 122.032 79.0688 122.14C78.5441 122.245 78.0107 122.144 77.5655 121.85C77.1183 121.557 76.814 121.106 76.7063 120.581C76.5993 120.057 76.7018 119.524 76.996 119.078L76.9957 119.077ZM81.8581 135.731C79.0909 136.298 76.3601 135.21 74.6929 133.148C75.9612 133.538 77.2965 133.747 78.6626 133.747C79.5636 133.747 80.4783 133.657 81.395 133.469C83.7038 132.995 85.7546 131.956 87.4349 130.527C87.2327 131.251 86.9191 131.946 86.4946 132.591C85.4193 134.222 83.7731 135.338 81.8581 135.731Z" fill="white"/>
<path d="M257.552 99.185C256.176 106.538 249.751 111.875 242.277 111.875C242.186 111.875 242.094 111.874 242.001 111.872C237.091 122.502 229.288 131.485 219.367 137.914C209.172 144.519 197.41 148.012 185.348 148.012C181.535 148.012 177.696 147.655 173.937 146.951C156.107 143.612 140.57 132.55 131.502 116.973C132.261 115.386 132.957 113.768 133.589 112.119C134.148 110.657 134.656 109.18 135.108 107.689L135.89 109.321C143.431 125.079 158.168 136.402 175.312 139.614C178.614 140.232 181.989 140.545 185.341 140.545C196.186 140.545 206.731 137.35 215.833 131.303C225.039 125.189 232.091 116.588 236.227 106.432L237.418 103.508L240.702 104.247C241.213 104.343 241.733 104.39 242.245 104.39C246.149 104.39 249.5 101.624 250.214 97.8107C251.033 93.4411 248.152 89.2195 243.79 88.3827L240.348 87.8684L240.294 84.7138C239.871 58.7938 221.038 36.5142 195.518 31.7345C192.111 31.0958 188.644 30.7732 185.212 30.7732C164.902 30.7732 146.416 41.971 136.889 60.0174C134.85 59.0595 132.665 58.4747 130.422 58.293C130.247 57.9586 130.069 57.6258 129.885 57.2946L130.112 56.8593C140.888 36.1609 161.995 23.3027 185.195 23.3027C188.39 23.3027 191.609 23.5547 194.795 24.042C195.901 18.2458 199.299 7.63758 209.642 3.72028C202.934 8.3907 200.044 17.1081 198.832 22.7731C201.165 19.5195 205.08 15.7683 210.843 15.5198C205.732 17.0407 202.136 21.7987 200.174 25.1059C205.971 26.5176 211.515 28.7495 216.691 31.7662C222.667 35.2485 228.002 39.6784 232.546 44.932C237.087 50.1821 240.699 56.0911 243.282 62.4978C245.767 68.6588 247.233 75.1242 247.646 81.7304C250.84 82.9067 253.56 85.1 255.405 88.016C257.515 91.3485 258.276 95.315 257.551 99.1854L257.552 99.185Z" fill="white"/>
<path d="M216.898 91.5704C217.804 86.7311 216.213 82.3724 213.343 81.8348C210.473 81.2973 207.412 84.7844 206.505 89.6238C205.599 94.4632 207.191 98.8218 210.061 99.3594C212.93 99.8969 215.991 96.4095 216.898 91.5704H216.898Z" fill="white"/>
<path d="M164.324 81.7227C165.23 76.8833 163.639 72.5246 160.769 71.987C157.899 71.4495 154.838 74.9366 153.932 79.776C153.025 84.6151 154.617 88.9741 157.487 89.5116C160.357 90.0491 163.418 86.5617 164.324 81.7227Z" fill="white"/>
<path d="M182.005 103.872C174.656 102.492 167.55 107.356 166.172 114.71C165.623 117.644 166.07 120.54 167.27 123.046C167.226 123.226 167.186 123.405 167.15 123.59C166.036 129.543 169.967 135.291 175.911 136.405C176.59 136.533 177.266 136.593 177.933 136.593C183.109 136.593 187.729 132.903 188.717 127.63C188.751 127.449 188.778 127.271 188.801 127.094C190.894 125.136 192.305 122.575 192.843 119.704C194.22 112.352 189.358 105.249 182.005 103.871L182.005 103.872ZM176.585 132.812C173.807 132.292 171.691 130.252 170.928 127.713C172.631 129.109 174.698 130.109 177.01 130.543C177.852 130.701 178.698 130.778 179.536 130.778C180.955 130.778 182.355 130.553 183.696 130.116C182.064 132.202 179.358 133.333 176.585 132.812ZM185.107 125.387C182.919 126.884 180.286 127.434 177.683 126.95C174.942 126.437 172.674 124.833 171.246 122.67C171.864 121.254 172.928 120.075 174.256 119.3C174.952 121.039 176.493 122.399 178.466 122.767C178.817 122.834 179.17 122.866 179.521 122.866C180.649 122.866 181.751 122.528 182.702 121.876C183.05 121.638 183.366 121.364 183.649 121.063C184.6 122.261 185.164 123.745 185.23 125.298C185.19 125.328 185.149 125.358 185.107 125.387H185.107ZM177.54 116.839C177.639 116.313 177.937 115.858 178.377 115.556C178.715 115.325 179.104 115.206 179.503 115.206C179.627 115.206 179.753 115.218 179.876 115.242C180.402 115.339 180.857 115.637 181.16 116.078C181.46 116.519 181.573 117.052 181.475 117.576C181.376 118.102 181.079 118.557 180.639 118.86C180.197 119.162 179.662 119.271 179.139 119.175C178.054 118.972 177.336 117.923 177.54 116.839H177.54ZM189.252 119.033C189.06 120.048 188.719 121.009 188.245 121.895C187.62 120.167 186.565 118.601 185.163 117.371C185.242 114.636 183.32 112.167 180.55 111.648C179.061 111.367 177.558 111.687 176.313 112.541C175.311 113.226 174.574 114.191 174.177 115.313C172.426 115.952 170.875 117.029 169.668 118.407C169.548 117.424 169.574 116.407 169.765 115.382C170.656 110.624 174.829 107.295 179.503 107.295C180.106 107.295 180.72 107.351 181.333 107.465C186.704 108.472 190.257 113.66 189.252 119.033Z" fill="white"/>
<path d="M29.3028 191.399C30.7538 188.735 31.4792 185.546 31.4792 181.832C31.4792 178.117 30.7506 174.928 29.2942 172.264C27.8375 169.601 25.7714 167.558 23.0958 166.136C20.4203 164.714 17.2485 164.003 13.5809 164.003H0.000488281V199.66H13.7202C17.3417 199.66 20.4813 198.949 23.1393 197.527C25.7972 196.106 27.8515 194.063 29.3028 191.399ZM20.7454 187.647C20.0894 189.04 19.1376 190.02 17.8901 190.589C16.6423 191.158 15.1363 191.442 13.372 191.442H9.68085V172.221H13.0935C14.9505 172.221 16.5206 172.505 17.8029 173.074C19.0853 173.642 20.0604 174.623 20.7282 176.016C21.3954 177.409 21.7292 179.348 21.7292 181.832C21.7292 184.315 21.4012 186.254 20.7454 187.647Z" fill="white"/>
<path d="M45.6164 187.891H48.9668L55.2271 199.66H65.7433L58.5002 186.362C60.3473 185.475 61.8046 184.217 62.8618 182.58C63.9934 180.827 64.5594 178.674 64.5594 176.121C64.5594 173.567 64.0078 171.42 62.9053 169.609C61.8024 167.798 60.2588 166.412 58.2738 165.448C56.2891 164.485 53.9735 164.003 51.3271 164.003H35.936V199.661H45.6164V187.891V187.891ZM49.0291 171.734C50.1664 171.734 51.1386 171.887 51.9454 172.195C52.7522 172.503 53.3731 172.978 53.8084 173.623C54.2437 174.267 54.4612 175.1 54.4612 176.121C54.4612 177.142 54.2437 177.949 53.8084 178.576C53.3731 179.203 52.7522 179.659 51.9454 179.943C51.1386 180.228 50.1667 180.37 49.0291 180.37H45.6164V171.734H49.0291V171.734Z" fill="white"/>
<path d="M74.031 199.661C74.8898 199.661 75.6848 199.443 76.4162 199.008C77.1476 198.572 77.7423 197.986 78.2006 197.249C78.6589 196.512 78.894 195.691 78.9058 194.786C78.894 193.462 78.398 192.331 77.4171 191.391C76.4363 190.451 75.3072 189.98 74.0306 189.98C72.6841 189.98 71.5321 190.451 70.5745 191.391C69.617 192.331 69.1437 193.463 69.1555 194.786C69.1437 196.144 69.6167 197.296 70.5745 198.242C71.5321 199.188 72.6841 199.661 74.0306 199.661H74.031Z" fill="white"/>
<path d="M100.634 185.732H113.448V199.66H123.129V164.003H113.448V177.932H100.634V164.003H90.9536V199.66H100.634V185.732Z" fill="white"/>
<path d="M163.313 199.66L151.543 164.003H138.311L126.542 199.66H136.988L139.048 192.835H150.806L152.867 199.66H163.313H163.313ZM141.235 185.592L144.788 173.823H145.067L148.62 185.592H141.235H141.235Z" fill="white"/>
<path d="M186.225 164.003L178.913 189.144H178.634L171.322 164.003H160.388L172.157 199.66H185.389L197.159 164.003H186.225Z" fill="white"/>
<path d="M206.045 192.835H217.803L219.863 199.66H230.31L218.54 164.003H205.308L193.538 199.66H203.985L206.045 192.835H206.045ZM212.063 173.823L215.616 185.592H208.231L211.784 173.823H212.063H212.063Z" fill="white"/>
<path d="M243.403 191.86V164.003H233.723V199.66H257.819V191.86H243.403Z" fill="white"/>
<path d="M30.0073 209.36C28.7878 208.684 27.25 208.347 25.3937 208.347H16.8887V232.207H20.4888V223.819H25.3819C27.2302 223.819 28.7664 223.479 29.9897 222.799C31.213 222.12 32.1293 221.195 32.7393 220.026C33.349 218.857 33.6537 217.539 33.6537 216.071C33.6537 214.603 33.3506 213.296 32.7451 212.127C32.1392 210.958 31.2264 210.036 30.0069 209.36H30.0073ZM29.518 218.483C29.1762 219.19 28.6403 219.747 27.9101 220.155C27.18 220.563 26.2286 220.766 25.0558 220.766H20.4888V211.434H25.0091C26.2053 211.434 27.1704 211.632 27.9044 212.028C28.6384 212.425 29.1762 212.972 29.518 213.671C29.8597 214.371 30.0306 215.171 30.0306 216.071C30.0306 216.972 29.8597 217.777 29.518 218.483V218.483Z" fill="white"/>
<path d="M41.8331 221.804H52.4116V218.716H41.8331V211.446H53.1921V208.347H38.2329V232.208H53.332V229.109H41.8331V221.804Z" fill="white"/>
<path d="M72.3806 209.774C70.7029 208.823 68.6952 208.347 66.3573 208.347H58.3882V232.208H66.1126C68.5361 232.208 70.6019 231.728 72.3107 230.769C74.0194 229.809 75.326 228.437 76.2312 226.65C77.136 224.864 77.5886 222.728 77.5886 220.243C77.5886 217.757 77.1398 215.639 76.243 213.864C75.3458 212.089 74.0584 210.726 72.3806 209.774V209.774ZM73.1497 225.036C72.5515 226.345 71.6505 227.343 70.4467 228.031C69.2426 228.718 67.7319 229.062 65.9146 229.062H61.9883V211.492H66.1359C67.8756 211.492 69.3321 211.83 70.5048 212.506C71.6776 213.182 72.5611 214.172 73.1555 215.477C73.7498 216.782 74.0466 218.37 74.0466 220.242C74.0466 222.114 73.7473 223.728 73.1494 225.036H73.1497Z" fill="white"/>
<path d="M86.0352 208.347H82.4351V232.208H86.0352V208.347Z" fill="white"/>
<path d="M98.4317 208.347L89.8452 232.208H93.6667L95.852 225.893H105.175L107.356 232.208H111.178L102.591 208.347H98.4317ZM96.9002 222.864L100.424 212.681H100.611L104.128 222.864H96.9002Z" fill="white"/>
<path d="M110.967 211.446H118.4V232.208H121.989V211.446H129.433V208.347H110.967V211.446Z" fill="white"/>
<path d="M146.974 222.258C148.197 221.645 149.113 220.784 149.724 219.677C150.333 218.571 150.638 217.287 150.638 215.827C150.638 214.367 150.335 213.064 149.729 211.942C149.123 210.819 148.209 209.94 146.985 209.303C145.762 208.666 144.226 208.347 142.378 208.347H133.873V232.208H137.473V223.179H142.366C142.444 223.179 142.519 223.175 142.596 223.174L147.446 232.208H151.547L146.264 222.562C146.51 222.47 146.749 222.371 146.974 222.258V222.258ZM137.473 211.434H141.993C143.181 211.434 144.143 211.611 144.876 211.965C145.61 212.318 146.15 212.825 146.496 213.485C146.842 214.145 147.014 214.926 147.014 215.827C147.014 216.728 146.844 217.485 146.502 218.122C146.16 218.759 145.622 219.244 144.888 219.578C144.154 219.912 143.205 220.079 142.04 220.079H137.473V211.434V211.434Z" fill="white"/>
<path d="M159.003 208.347H155.403V232.208H159.003V208.347Z" fill="white"/>
<path d="M170.928 212.343C172.012 211.652 173.241 211.306 174.616 211.306C175.377 211.306 176.097 211.411 176.777 211.621C177.457 211.831 178.072 212.141 178.624 212.553C179.175 212.965 179.641 213.466 180.022 214.056C180.402 214.647 180.663 215.33 180.802 216.107H184.437C184.236 214.825 183.847 213.686 183.272 212.687C182.697 211.689 181.971 210.842 181.094 210.147C180.216 209.452 179.228 208.924 178.129 208.563C177.03 208.202 175.847 208.021 174.581 208.021C172.523 208.021 170.686 208.512 169.07 209.495C167.455 210.477 166.181 211.883 165.249 213.712C164.317 215.542 163.851 217.73 163.851 220.277C163.851 222.825 164.315 225.004 165.243 226.837C166.171 228.67 167.443 230.078 169.058 231.06C170.674 232.043 172.514 232.534 174.58 232.534C175.893 232.534 177.105 232.34 178.215 231.951C179.326 231.563 180.314 231.013 181.181 230.302C182.047 229.592 182.757 228.745 183.313 227.763C183.868 226.78 184.243 225.702 184.437 224.53L180.802 224.518C180.655 225.279 180.389 225.953 180.004 226.539C179.619 227.126 179.151 227.621 178.6 228.025C178.048 228.429 177.433 228.734 176.753 228.939C176.074 229.145 175.357 229.248 174.604 229.248C173.244 229.248 172.021 228.907 170.934 228.223C169.846 227.539 168.99 226.53 168.365 225.194C167.74 223.858 167.427 222.219 167.427 220.277C167.427 218.335 167.74 216.72 168.365 215.384C168.99 214.048 169.845 213.034 170.928 212.343L170.928 212.343Z" fill="white"/>
<path d="M192.72 208.347H189.12V232.208H192.72V208.347Z" fill="white"/>
<path d="M205.117 208.347L196.53 232.208H200.352L202.537 225.893H211.86L214.041 232.208H217.863L209.276 208.347H205.117ZM203.585 222.864L207.109 212.681H207.296L210.813 222.864H203.585Z" fill="white"/>
<path d="M237.365 225.87H237.144L225.004 208.347H221.672V232.208H225.272V214.708H225.493L237.622 232.208H240.93V208.347H237.365V225.87Z" fill="white"/>
</svg>
